<svg id="visual" viewBox="0 0 960 540" width="960" height="540" xmlns="http://www.w3.org/2000/svg" xmlns:xlink="http://www.w3.org/1999/xlink" version="1.1"><path d="M0 190L22.8 172.8C45.7 155.7 91.3 121.3 137 127.7C182.7 134 228.3 181 274 190C319.7 199 365.3 170 411.2 170C457 170 503 199 548.8 191.8C594.7 184.7 640.3 141.3 686 132.3C731.7 123.3 777.3 148.7 823 165.8C868.7 183 914.3 192 937.2 196.5L960 201L960 0L937.2 0C914.3 0 868.7 0 823 0C777.3 0 731.7 0 686 0C640.3 0 594.7 0 548.8 0C503 0 457 0 411.2 0C365.3 0 319.7 0 274 0C228.3 0 182.7 0 137 0C91.3 0 45.7 0 22.8 0L0 0Z" fill="#6198ff"></path><path d="M0 260L22.8 244.7C45.7 229.3 91.3 198.7 137 204.2C182.7 209.7 228.3 251.3 274 257.7C319.7 264 365.3 235 411.2 232.2C457 229.3 503 252.7 548.8 256.3C594.7 260 640.3 244 686 240.5C731.7 237 777.3 246 823 251.3C868.7 256.7 914.3 258.3 937.2 259.2L960 260L960 199L937.2 194.5C914.3 190 868.7 181 823 163.8C777.3 146.7 731.7 121.3 686 130.3C640.3 139.3 594.7 182.7 548.8 189.8C503 197 457 168 411.2 168C365.3 168 319.7 197 274 188C228.3 179 182.7 132 137 125.7C91.3 119.3 45.7 153.7 22.8 170.8L0 188Z" fill="#3c80ff"></path><path d="M0 406L22.8 403.3C45.7 400.7 91.3 395.3 137 395.3C182.7 395.3 228.3 400.7 274 408.7C319.7 416.7 365.3 427.3 411.2 428.2C457 429 503 420 548.8 413.8C594.7 407.7 640.3 404.3 686 403.5C731.7 402.7 777.3 404.3 823 404.3C868.7 404.3 914.3 402.7 937.2 401.8L960 401L960 258L937.2 257.2C914.3 256.3 868.7 254.7 823 249.3C777.3 244 731.7 235 686 238.5C640.3 242 594.7 258 548.8 254.3C503 250.7 457 227.3 411.2 230.2C365.3 233 319.7 262 274 255.7C228.3 249.3 182.7 207.7 137 202.2C91.3 196.7 45.7 227.3 22.8 242.7L0 258Z" fill="#0066ff"></path><path d="M0 498L22.8 493.5C45.7 489 91.3 480 137 472.8C182.7 465.7 228.3 460.3 274 462.2C319.7 464 365.3 473 411.2 475.7C457 478.3 503 474.7 548.8 471.8C594.7 469 640.3 467 686 466C731.7 465 777.3 465 823 472.3C868.7 479.7 914.3 494.3 937.2 501.7L960 509L960 399L937.2 399.8C914.3 400.7 868.7 402.3 823 402.3C777.3 402.3 731.7 400.7 686 401.5C640.3 402.3 594.7 405.7 548.8 411.8C503 418 457 427 411.2 426.2C365.3 425.3 319.7 414.7 274 406.7C228.3 398.7 182.7 393.3 137 393.3C91.3 393.3 45.7 398.7 22.8 401.3L0 404Z" fill="#0059dd"></path><path d="M0 541L22.8 541C45.7 541 91.3 541 137 541C182.7 541 228.3 541 274 541C319.7 541 365.3 541 411.2 541C457 541 503 541 548.8 541C594.7 541 640.3 541 686 541C731.7 541 777.3 541 823 541C868.7 541 914.3 541 937.2 541L960 541L960 507L937.2 499.7C914.3 492.3 868.7 477.7 823 470.3C777.3 463 731.7 463 686 464C640.3 465 594.7 467 548.8 469.8C503 472.7 457 476.3 411.2 473.7C365.3 471 319.7 462 274 460.2C228.3 458.3 182.7 463.7 137 470.8C91.3 478 45.7 487 22.8 491.5L0 496Z" fill="#004cbb"></path></svg>